#!OML:ASF H:\Not Pregnant\Project 1\Capture day 1\Session 1\non-pregnant.ASF
:FULLY-SPECIFIED
:DEGREES
443
root 5.75425 15.5294 35.7464 -343.002 -160.028 -360.619
lowerback -0.84292 3.29612 6.51185
upperback -7.83522 4.13809 -0.059004
thorax -7.27589 1.39864 -3.87136
lowerneck 15.7796 -8.51163 -30.2071
upperneck -6.89179 -20.3285 43.1786
head 4.15732 -13.2289 21.8288
rclavicle -1.8108e-015 4.53229e-014
rhumerus -72.6325 11.7534 -53.5444
rradius 25.6357
rwrist 15.7817
rhand 0.321682 -20.9327
rfingers 7.12502
rthumb 25.8985 -49.1889
lclavicle -1.8108e-015 4.53229e-014
lhumerus -69.2093 -7.08795 94.6824
lradius 103.437
lwrist 57.8157
lhand -18.6637 -17.385
lfingers 7.12502
lthumb 7.62975 12.4574
rfemur -24.6943 -6.44237 12.0821
rtibia 46.6871
rfoot -24.8555 -3.55737
rtoes -28.0656
lfemur -27.9172 9.82585 -16.7794
ltibia 35.4811
lfoot -17.8729 7.0697
ltoes -45.3194
444
root 5.67122 15.5523 35.7696 -343.209 -161.289 -360.638
lowerback -1.02638 3.2664 6.46281
upperback -7.7051 4.07612 -0.226469
thorax -7.02575 1.38245 -4.00362
lowerneck 15.635 -8.40307 -30.1389
upperneck -6.75289 -20.2187 43.1841
head 4.16123 -13.1861 21.8433
rclavicle -1.03057e-014 -2.14687e-014
rhumerus -72.7183 12.6253 -54.8054
rradius 25.9511
rwrist 9.70973
rhand -1.59046 -22.0683
rfingers 7.12502
rthumb 24.0661 -50.5792
lclavicle -1.03057e-014 -2.14687e-014
lhumerus -69.4552 -7.4224 93.7361
lradius 104.064
lwrist 58.4233
lhand -18.2551 -16.7229
lfingers 7.12502
lthumb 8.02411 13.1048
rfemur -24.5471 -7.00918 13.1833
rtibia 47.7209
rfoot -24.8126 -3.15469
rtoes -28.7965
lfemur -27.651 9.62399 -17.076
ltibia 36.0121
lfoot -17.2852 7.67969
ltoes -45.9312
445
root 5.59337 15.5725 35.7893 -343.411 -162.539 -360.697
lowerback -1.22963 3.23158 6.31082
upperback -7.56728 4.00415 -0.402809
thorax -6.76295 1.36856 -4.08652
lowerneck 15.5458 -8.29344 -30.051
upperneck -6.67571 -20.1042 43.2053
head 4.13568 -13.149 21.8705
rclavicle 3.49162e-014 -3.18055e-015
rhumerus -72.6406 13.3035 -55.7668
rradius 26.3304
rwrist 3.79833
rhand -3.36198 -23.1184
rfingers 7.12502
rthumb 22.3665 -51.8436
lclavicle 3.49162e-014 -3.18055e-015
lhumerus -69.5648 -7.81588 92.7341
lradius 104.576
lwrist 58.9592
lhand -17.7897 -16.0698
lfingers 7.12502
lthumb 8.47325 13.7402
rfemur -24.2672 -7.44042 14.2341
rtibia 48.5934
rfoot -24.7221 -2.71955
rtoes -29.5427
lfemur -27.4763 9.66142 -17.4111
ltibia 36.6787
lfoot -16.7916 7.93349
ltoes -46.4374
446
root 5.52102 15.5899 35.8062 -343.602 -163.771 -360.802
lowerback -1.45794 3.19942 6.04814
upperback -7.43431 3.93154 -0.596763
thorax -6.4967 1.35981 -4.12509
lowerneck 15.5651 -8.16835 -29.9405
upperneck -6.67502 -19.9793 43.2543
head 4.06522 -13.1226 21.9288
rclavicle 4.22402e-014 2.8625e-014
rhumerus -72.4079 13.747 -56.342
rradius 26.7151
rwrist -1.47004
rhand -4.85426 -24.039
rfingers 7.12502
rthumb 20.9334 -52.9294
lclavicle 4.22402e-014 2.8625e-014
lhumerus -69.5795 -8.2915 91.691
lradius 104.982
lwrist 59.373
lhand -17.2547 -15.4662
lfingers 7.12502
lthumb 8.98957 14.3223
rfemur -23.8637 -7.75741 15.228
rtibia 49.2921
rfoot -24.5744 -2.22012
rtoes -30.2956
lfemur -27.4075 9.93009 -17.7852
ltibia 37.4882
lfoot -16.371 7.84668
ltoes -46.8629
447
root 5.45481 15.6039 35.8213 -343.771 -164.976 -360.958
lowerback -1.70117 3.1561 5.66376
upperback -7.30312 3.84204 -0.798012
thorax -6.23257 1.34836 -4.10233
lowerneck 15.6147 -8.04194 -29.8396
upperneck -6.72606 -19.8599 43.3364
head 3.98557 -13.108 22.0153
rclavicle -6.84472e-014 -4.21423e-014
rhumerus -71.9738 13.9576 -56.5112
rradius 27.0264
rwrist -5.6617
rhand -5.98981 -24.7772
rfingers 7.12502
rthumb 19.8421 -53.7843
lclavicle -6.84472e-014 -4.21423e-014
lhumerus -69.4847 -8.81234 90.609
lradius 105.278
lwrist 59.6029
lhand -16.6631 -14.9716
lfingers 7.12502
lthumb 9.56042 14.7915
rfemur -23.3626 -7.97843 16.1656
rtibia 49.8094
rfoot -24.3487 -1.64615
rtoes -31.0902
lfemur -27.4735 10.3926 -18.192
ltibia 38.4557
lfoot -15.9895 7.45006
ltoes -47.2625
448
root 5.39491 15.6132 35.8358 -343.925 -166.147 -361.162
lowerback -1.94902 3.1015 5.16383
upperback -7.17332 3.73768 -1.00199
thorax -5.97555 1.33408 -4.01748
lowerneck 15.6909 -7.91156 -29.7596
upperneck -6.8262 -19.7408 43.4485
head 3.89692 -13.1015 22.1328
rclavicle 3.94013e-014 8.34896e-015
rhumerus -71.3602 13.9421 -56.3227
rradius 27.2016
rwrist -8.48316
rhand -6.71068 -25.3164
rfingers 7.12502
rthumb 19.1491 -54.3937
lclavicle 3.94013e-014 8.34896e-015
lhumerus -69.297 -9.3785 89.5065
lradius 105.471
lwrist 59.6299
lhand -16.0501 -14.6277
lfingers 7.12502
lthumb 10.1519 15.1074
rfemur -22.7752 -8.12221 17.0514
rtibia 50.1365
rfoot -23.9748 -0.940178
rtoes -31.8304
lfemur -27.694 11.0103 -18.6208
ltibia 39.603
lfoot -15.5945 6.82031
ltoes -47.7425
449
root 5.34078 15.6168 35.851 -344.062 -167.273 -361.397
lowerback -2.19633 3.03265 4.57606
upperback -7.0493 3.61585 -1.2027
thorax -5.73211 1.31302 -3.88013
lowerneck 15.7885 -7.78603 -29.7006
upperneck -6.97618 -19.6283 43.5783
head 3.80041 -13.1031 22.2693
rclavicle 3.23126e-014 -1.59028e-014
rhumerus -70.6058 13.7218 -55.8569
rradius 27.2045
rwrist -9.77547
rhand -7.04337 -25.6084
rfingers 7.12502
rthumb 18.8291 -54.7171
lclavicle 3.23126e-014 -1.59028e-014
lhumerus -69.0335 -9.98407 88.391
lradius 105.569
lwrist 59.4666
lhand -15.4878 -14.4681
lfingers 7.12502
lthumb 10.6942 15.2398
rfemur -22.1189 -8.21221 17.9019
rtibia 50.2599
rfoot -23.4166 -0.0879602
rtoes -32.5502
lfemur -28.0857 11.7159 -19.0458
ltibia 40.951
lfoot -15.1832 5.97529
ltoes -48.2212
450
root 5.29133 15.6131 35.8676 -344.189 -168.345 -361.648
lowerback -2.43604 2.94712 3.93578
upperback -6.92274 3.47577 -1.39327
thorax -5.49544 1.28347 -3.70309
lowerneck 15.8721 -7.68266 -29.6562
upperneck -7.15888 -19.5336 43.7062
head 3.70823 -13.1109 22.3985
rclavicle 1.40512e-014 8.34896e-015
rhumerus -69.7386 13.3119 -55.1867
rradius 27.0328
rwrist -9.53562
rhand -7.03792 -25.6355
rfingers 7.12502
rthumb 18.8343 -54.7437
lclavicle 1.40512e-014 8.34896e-015
lhumerus -68.6864 -10.6182 87.2657
lradius 105.577
lwrist 59.1491
lhand -15.0332 -14.5046
lfingers 7.12502
lthumb 11.1327 15.1801
rfemur -21.3983 -8.28053 18.7305
rtibia 50.1649
rfoot -22.6477 0.97474
rtoes -33.2231
lfemur -28.6528 12.4502 -19.4434
ltibia 42.5135
lfoot -14.7369 4.96047
ltoes -48.6779
451
root 5.24564 15.6017 35.8863 -344.313 -169.362 -361.895
lowerback -2.65273 2.85264 3.28013
upperback -6.79457 3.32923 -1.57262
thorax -5.27187 1.2491 -3.50712
lowerneck 15.9466 -7.6109 -29.6189
upperneck -7.3897 -19.4585 43.8219
head 3.61328 -13.1234 22.5084
rclavicle 2.68421e-014 5.1684e-015
rhumerus -68.8034 12.7069 -54.3516
rradius 26.7037
rwrist -7.87541
rhand -6.78252 -25.3883
rfingers 7.12502
rthumb 19.08 -54.4724
lclavicle 2.68421e-014 5.1684e-015
lhumerus -68.264 -11.2955 86.1349
lradius 105.498
lwrist 58.7206
lhand -14.6931 -14.683
lfingers 7.12502
lthumb 11.4607 14.9838
rfemur -20.6258 -8.34049 19.5504
rtibia 49.84
rfoot -21.6539 2.31042
rtoes -33.8071
lfemur -29.3906 13.1614 -19.7866
ltibia 44.2928
lfoot -14.244 3.80408
ltoes -49.0341
452
root 5.20225 15.5816 35.9071 -344.444 -170.32 -362.129
lowerback -2.84647 2.75025 2.63335
upperback -6.66734 3.17709 -1.74062
thorax -5.06235 1.20904 -3.30579
lowerneck 16.045 -7.56098 -29.5798
upperneck -7.67074 -19.3918 43.9174
head 3.50011 -13.1365 22.5997
rclavicle -2.02124e-014 -1.21259e-014
rhumerus -67.8328 11.9198 -53.369
rradius 26.2734
rwrist -5.07325
rhand -6.32278 -24.9443
rfingers 7.12502
rthumb 19.522 -53.9842
lclavicle -2.02124e-014 -1.21259e-014
lhumerus -67.7902 -12.0137 84.9952
lradius 105.344
lwrist 58.2603
lhand -14.4628 -14.9382
lfingers 7.12502
lthumb 11.6828 14.716
rfemur -19.8018 -8.40951 20.3597
rtibia 49.2905
rfoot -20.504 3.76448
rtoes -34.4207
lfemur -30.281 13.8078 -20.0633
ltibia 46.2757
lfoot -13.6968 2.51302
ltoes -49.2408
